# xmcd
#
# Track frame offsets:
#	150
#	15355
#	28140
#	39875
#	55670
#	68865
#	83870
#	98750
#	112950
#	126925
#	142925
#	157375
#	167600
#	183315
#	195875
#
# Disc length: 2818 seconds
#
# Revision: 1
# Processed by: cddbd v1.5.2PL0 Copyright (c) Steve Scherf et al.
# Submitted via: EasyCDDAExtractor 11.0.0.1
#
DISCID=b80b000f
DTITLE=Fábio and Fernando - Fábio and Fernando Vol. 03
DYEAR=1996
DGENRE=Sertanejo
TTITLE0=Ela Me Deu o Fora
TTITLE1=Castiga-me
TTITLE2=Quando Toca o Xote
TTITLE3=Pra Te Amar Mais Uma Vez (Cry In The Rain)
TTITLE4=Rio de Saudade
TTITLE5=Molhado de Amor
TTITLE6=Você Ligou Errado
TTITLE7=Faça o Que Quiser de Mim
TTITLE8=Coisa Feita
TTITLE9=Vem Matar Essa Saudade
TTITLE10=Amar, Fazer Amor
TTITLE11=Diz Que Tem Amor Pra Mim
TTITLE12=Qual Perfume e Flor
TTITLE13=Menina
TTITLE14=Mãe
EXTD=
EXTT0=
EXTT1=
EXTT2=
EXTT3=
EXTT4=
EXTT5=
EXTT6=
EXTT7=
EXTT8=
EXTT9=
EXTT10=
EXTT11=
EXTT12=
EXTT13=
EXTT14=
PLAYORDER=
